<svg xmlns="http://www.w3.org/2000/svg" viewBox="0 0 304.998 304.998" width="88" height="88">
  <path d="M274.659,244.888c-8.944-3.663-12.77-8.524-12.4-15.777c0.381-8.466-4.422-14.667-6.703-17.117  c1.378-5.264,5.405-23.474,0.004-39.291c-5.804-16.93-23.524-42.787-41.808-68.204c-7.485-10.438-7.839-21.784-8.248-34.922  c-0.392-12.531-0.834-26.735-7.822-42.525C190.084,9.859,174.838,0,155.851,0c-11.295,0-22.889,3.53-31.811,9.684  c-18.27,12.609-15.855,40.1-14.257,58.291c0.066,0.75,0.12,1.509,0.17,2.248c0.867,12.862-3.137,22.937-11.909,29.987  c-6.333,5.099-13.373,8.123-20.805,10.477c-0.735,0.229-1.33,0.481-1.957,0.752c-9.602,4.108-16.454,12.968-20.286,22.896  c-6.209,16.049-14.771,32.895-14.82,50.88c-0.131,47.596,42.083,90.024,87.19,96.646c22.222,3.258,44.158,3.542,66.561,3.823  c22.329,0.281,45.42,0.571,67.536,3.912c55.82,8.386,101.045-12.79,105.048-57.031  C282.373,262.628,279.355,252.814,274.659,244.888z M149.422,81.953c-1.333,0.848-3.419,2.675-5.605,6.373  c-0.66,1.115-1.404,2.283-2.213,3.491c-7.761,11.615-11.874,17.447-20.403,17.447c-2.524,0-4.327-0.53-5.539-1.104  c-7.99-3.758-8.203-14.262-8.203-14.34c0,0-0.004-0.134-0.017-0.387c-0.095-1.793-0.469-6.265,5.609-9.219  c9.248-4.48,16.674-10.152,21.66-16.547c10.629-13.713,12.888-28.618,10.922-32.165c-1.437-2.593-3.201-6.473-16.569-6.473  c-12.657,0-20.98,5.722-25.094,10.541c-7.333,8.593-10.519,19.247-8.593,28.756c0.322,1.597,0.807,3.159,1.315,4.671  c-0.459,0.119-0.914,0.243-1.367,0.368c-9.602,2.683-17.79,6.032-27.062,16.315c-9.044,10.026-14.414,21.072-14.529,29.943  c-0.036,2.75,0.38,5.388,1.231,7.924c-2.184,0.826-4.421,1.682-6.655,2.546c-10.265,3.977-19.129,7.416-25.933,13.577  c-5.373,4.863-10.615,15.48-8.572,28.952c1.106,7.3,4.46,13.614,9.523,17.845c4.523,3.786,10.027,6.018,15.971,6.462  c0.561,0.05,1.13,0.072,1.685,0.072c12.374,0,23.73-10.575,28.491-26.355c1.812-6.006,2.038-11.636,0.683-16.772  c-0.89-3.361-2.539-6.282-4.854-8.472c1.054-0.488,2.125-0.955,3.176-1.423c13.691-6.069,29.217-12.953,39.15-26.741  c6.946-9.655,11.569-22.05,13.048-34.859c1.344-11.57,0.628-27.943-10.926-39.644C160.436,75.001,154.805,78.302,149.422,81.953z   M167.579,138.14c-5.325,5.43-13.082,9.462-24.213,12.613c-5.727,1.623-12.676,3.431-19.132,5.896  c-0.977,0.15-1.957,0.335-2.936,0.515c-0.938,0.173-1.873,0.346-2.805,0.511c-0.29,0.051-0.578,0.102-0.867,0.152  c-3.886-1.992-5.986-6.189-4.265-9.256c3.731-6.656,14.496-13.203,24.404-13.203c7.733,0,13.644,2.515,16.633,4.723  c1.344,0.995,2.876,1.459,4.477,1.459c1.919,0,3.868-0.741,5.612-2.136c2.898-2.314,4.704-5.801,4.879-9.412  C169.147,133.656,168.605,137.108,167.579,138.14z M254.199,204.885c-1.378,6.26-5.831,11.633-11.937,14.35  c-1.851,0.82-3.765,1.367-5.706,1.633c-3.454,0.476-6.974,0.162-10.201-0.908c-0.607-0.203-1.241-0.4-1.876-0.601  c0.12-0.303,0.24-0.605,0.357-0.905c4.089-10.506,2.67-22.912-3.494-30.342c-3.582-4.307-8.476-6.987-13.922-7.635  c-0.49-0.059-0.991-0.1-1.476-0.129c-4.11-0.238-8.335,0.808-12.091,2.983c-11.177,6.494-17.232,16.913-19.084,32.662  c-0.053,0.452-0.094,0.922-0.23,1.373c-11.56-12.318-23.923-24.123-34.694-35.436c-25.695-27.044-49.989-52.617-61.586-81.905  c-4.305-10.845-5.878-22.348-5.121-35.331c0.21-3.619,0.594-7.48,1.269-11.855c0.584-3.798,1.262-7.58,1.658-11.38  c0.585-5.604,0.14-11.233-0.385-16.76c-0.296-3.129-0.599-6.301-0.711-9.405c-0.133-3.687-0.153-7.26-0.173-10.74  c-0.039-7.029-0.077-14.291-1.263-21.877c4.138-2.975,8.963-5.897,13.533-6.624c6.842-1.087,12.45,0.58,16.56,4.947  c5.293,5.615,8.085,14.781,8.723,28.638c0.448,9.747,2.163,19.352,5.108,28.517c1.458,4.526,3.315,8.95,5.711,13.439  c0.399,0.747,0.814,1.479,1.219,2.213c4.627,8.392,9.937,15.224,13.879,21.569c6.553,10.53,20.173,32.415,36.937,52.666  c11.441,13.834,21.323,22.959,32.811,30.301c9.479,6.061,18.276,10.239,26.12,12.424c8.405,2.348,15.055,2.361,19.535-0.033  C255.047,218.264,255.578,211.628,254.199,204.885z" fill="#2ecc71"/>
</svg>
